# xmcd CD database file
#
# Track frame offsets:
#	150
#	19615
#	37525
#	56991
#
# Disc length: 996 seconds
#
# Revision: 1
# Processed by: cddbd v1.5.2PL0 Copyright (c) Steve Scherf et al.
# Submitted via: CDex 1.70beta3
#
DISCID=2503e204
DTITLE=KAT-TUN - ULTIMATE WHEELS
DYEAR=2011
DGENRE=J-POP
TTITLE0=ULTIMATE WHEELS
TTITLE1=MAKE-OR-BREAK
TTITLE2=ULTIMATE WHEELS (オリジナル・カラオケ)
TTITLE3=MAKE-OR-BREAK (オリジナル・カラオケ)
EXTD=YEAR: 2011
EXTT0=
EXTT1=
EXTT2=
EXTT3=
PLAYORDER=
